<?xml version="1.0" encoding="UTF-8"?>
<svg version="1.1" viewBox="0 0 1600 704" width="1280" height="1280" xmlns="http://www.w3.org/2000/svg">
<path transform="translate(0)" d="m0 0h1600v704h-1600v-704z" fill="#FDFDFE"/>
<path transform="translate(486 207)" d="m0 0c0.632 0.549 1.26 1.1 1.91 1.66v2h2c18.7 17.6 32.4 45.8 33.4 71.4 0.0484 2.65 0.0783 5.3 0.0898 7.95 0.00636 1.25 0.0127 2.49 0.0193 3.78-0.114 8.3-1.32 15.8-3.52 23.8-0.188 0.709-0.376 1.42-0.569 2.15-7.32 26.4-23.9 46.8-46.4 61.9-0.933 0.641-1.87 1.28-2.83 1.94-6.22 3.97-12.7 6.51-19.7 8.87-0.854 0.29-1.71 0.581-2.59 0.88-11.1 3.59-22 4.66-33.7 4.62-2.06-0.00316-4.11 0.0204-6.17 0.0457-29.7 0.144-54.4-13.7-75.5-33.7-0.846-0.887-1.69-1.77-2.56-2.69-0.691-0.719-1.38-1.44-2.09-2.18-5.2-5.57-9.3-11.1-12.9-17.8-0.491-0.856-0.982-1.71-1.49-2.59-8.46-15.6-12.6-33.6-12.8-51.2-0.00951-0.694-0.019-1.39-0.0288-2.1 0.0322-4.99 0.962-9.27 2.28-14.1 0.177-0.953 0.353-1.91 0.535-2.89 5.41-28.7 23.7-53.9 47.6-70.2 45.7-30.2 92.2-22.5 135 8.46z" fill="#005189"/>
<path transform="translate(704 231)" d="m0 0c4.56 5.1 7.53 9.1 7.31 16.2-0.527 3.44-2.08 5.39-4.31 8.02-0.694 0.843-0.694 0.843-1.4 1.7-3.58 3.75-6.42 4.74-11.6 4.92-6.42-0.322-10.4-2.04-15-6.62-2.95-0.188-5.81-0.252-8.76-0.227-1.36-4.38e-4 -1.36-4.38e-4 -2.75-8.85e-4 -3.01 0.0014-6.02 0.017-9.03 0.0326-2.08 0.00373-4.16 0.00658-6.25 0.00858-5.49 0.00765-11 0.0273-16.5 0.0494-5.6 0.0204-11.2 0.0296-16.8 0.0397-11 0.0215-22 0.0556-33 0.0977-0.202 0.612-0.404 1.22-0.612 1.86-0.267 0.806-0.534 1.61-0.81 2.44-0.264 0.798-0.528 1.6-0.8 2.42-2.37 6.96-5.39 13.7-8.76 20.2-1.03 2.12-1.89 4.25-2.74 6.44-2.67 6.73-5.67 13.3-8.65 19.9-1.11 2.46-2.23 4.93-3.34 7.39-0.273 0.605-0.545 1.21-0.826 1.83-2.45 5.47-4.82 11-7.16 16.5-1.17 2.72-2.38 5.41-3.62 8.1-2.46 5.35-4.76 10.8-7.06 16.2-3.1 7.27-6.32 14.4-9.7 21.6-2.49 5.32-4.82 10.7-7.18 16.1-3.84 8.78-7.75 17.5-11.8 26.2-0.457 0.997-0.913 1.99-1.38 3.02-0.43 0.935-0.86 1.87-1.3 2.83-0.4 0.874-0.799 1.75-1.21 2.65-1.1 2.31-1.1 2.31-2.91 5.42-3.04 7.39-0.88 13.6 2.01 20.8 0.429 1.01 0.859 2.03 1.3 3.07 0.846 2.05 1.69 4.1 2.53 6.15 0.377 0.896 0.754 1.79 1.14 2.71 0.826 2.2 0.826 2.2 0.826 4.2h2v2c1.28-0.0412 2.56-0.0825 3.88-0.125 11 0.0516 23.2 2.96 31.4 10.7 9.52 10.6 16.4 22.4 15.8 37-1.64 12.9-6.94 23.3-17.1 31.4-9.49 6.58-20.7 13.2-32.5 11.9-9.92-2.57-19.5-8.65-27.5-14.9v-2c-0.598-0.236-1.2-0.472-1.81-0.715-5.95-3.5-8.86-12.4-11.4-18.6-0.636-1.71-0.636-1.71-1.76-2.71-1.39-0.0954-2.79-0.122-4.18-0.12-0.902-0.00137-1.8-0.00275-2.73-0.00417-0.997 0.0036-1.99 0.00719-3.02 0.0109-1.04-1.46e-4 -2.09-2.92e-4 -3.16-4.43e-4 -3.47 7e-4 -6.94 0.00849-10.4 0.0163-2.4 0.00186-4.8 0.00329-7.19 0.00429-6.32 0.00383-12.6 0.0137-19 0.0247-6.45 0.0102-12.9 0.0148-19.3 0.0198-12.7 0.0107-25.3 0.0276-38 0.0488l-0.979 2.46c-0.435 1.07-0.869 2.14-1.32 3.25-0.64 1.59-0.64 1.59-1.29 3.21-6.49 14.2-20 22.4-33.4 29.1-8.69 2.6-16.2 0.529-24-3.55-12.4-7.06-12.4-7.06-17-11.5v-2h-2c-5.53-6.68-10.3-15.3-11-24-0.0632-0.63-0.126-1.26-0.191-1.91-0.66-11.7 4.52-23.1 11.8-32.1 8.7-9.38 20.8-14.8 33.5-15.3 10.1 0.153 21.3 3.34 29 10.1 7.16 7.6 12.2 16.9 16.9 26.1l109 1c0.99-2.97 1.98-5.94 3-9 4.52-10 10.7-16.3 20-22-0.0376-8.5-2.85-14.7-7-22-0.624-1.3-0.624-1.3-1.26-2.63-1.52-2.58-1.52-2.58-4.19-2.99-0.979-0.00147-1.96-0.00293-2.97-0.00444-1.13-0.0138-2.25-0.0277-3.41-0.0419-1.24 0.0102-2.47 0.0204-3.75 0.0309-1.3-0.00888-2.61-0.0178-3.95-0.0269-3.59-0.024-7.17-0.0172-10.8-0.00551-3.78 0.00687-7.57-0.0153-11.4-0.0345-7.21-0.0324-14.4-0.0401-21.6-0.0384-10.4 0.00144-20.9-0.0326-31.3-0.0677-1.57-0.00523-3.14-0.0105-4.7-0.0157-0.769-0.0026-1.54-0.00521-2.33-0.00789-5.17-0.0166-10.3-0.0216-15.5-0.0223-6.88-0.00233-13.8-0.0414-20.6-0.104-2.91-0.0258-5.83-0.0374-8.74-0.0407-3.79-0.00595-7.59-0.043-11.4-0.1-1.43-0.0169-2.87-0.0239-4.3-0.0199-7.71 0.0142-13.5-0.0938-19.4-5.35-1.88-2.06-2.99-3.89-3.95-6.52-0.389-1.06-0.779-2.11-1.18-3.2-0.424-1.27-0.843-2.53-1.26-3.8-0.24-0.727-0.48-1.45-0.728-2.2-1.47-4.49-2.89-8.99-4.3-13.5-2.03-6.51-4.12-13-6.22-19.5-0.618-1.92-1.24-3.83-1.85-5.75-2.03-6.29-4.06-12.6-6.09-18.9-1.86-5.77-3.73-11.5-5.59-17.3-1.05-3.24-2.09-6.49-3.14-9.73-1.2-3.71-2.39-7.41-3.59-11.1-0.384-1.19-0.768-2.38-1.16-3.6-1.84-5.73-3.64-11.5-5.36-17.2-0.316-1.06-0.632-2.12-0.957-3.22-0.585-1.98-1.16-3.96-1.73-5.94-0.258-0.875-0.516-1.75-0.782-2.65-0.218-0.758-0.437-1.52-0.661-2.3-0.993-2.5-1.93-4.18-3.84-6.11-2.46-0.59-2.46-0.59-5.26-0.482-1.08-0.00681-2.15-0.0136-3.26-0.0206-1.74 0.017-1.74 0.017-3.52 0.0343-1.2-0.00705-2.4-0.0141-3.63-0.0214-5.13-0.0295-10.3-0.0129-15.4-6.1e-4 -3.74 0.00239-7.49-0.0186-11.2-0.0405-1.15 0.0113-2.3 0.0226-3.49 0.0343-8.38-0.0523-13.5-1.48-20.1-6.82-2.58-3.27-3.25-5.65-4.12-9.69 2.38-3.09 3.55-3.94 7.48-4.48 1.41-0.0116 2.82-0.00105 4.23 0.0269 1.16-8.76e-4 1.16-8.76e-4 2.34-0.00177 2.54 0.00278 5.09 0.0339 7.63 0.0652 1.77 0.00746 3.53 0.0132 5.3 0.0172 4.64 0.0153 9.29 0.0545 13.9 0.0988 4.74 0.0409 9.48 0.0592 14.2 0.0793 9.3 0.0429 18.6 0.111 27.9 0.195 4.43 7.64 4.43 7.64 5.75 11.9 0.437 1.39 0.437 1.39 0.883 2.8 0.305 0.998 0.611 2 0.926 3.02 0.334 1.07 0.669 2.14 1.01 3.24 0.941 3.01 1.87 6.02 2.81 9.02 1.81 5.82 3.64 11.6 5.47 17.5 0.477 1.52 0.954 3.04 1.43 4.56 3.05 9.73 6.18 19.4 9.44 29.1 1.69 5.01 3.25 10 4.72 15.1 2.1 7.26 4.3 14.5 6.56 21.7 0.32 1.04 0.641 2.09 0.97 3.16 2.08 6.57 4.39 13 8.03 18.9 0.66 0.33 1.32 0.66 2 1v2h2v2c8.17 2.28 16.1 2.28 24.5 2.26 1.56 0.00271 3.12 0.00628 4.68 0.0106 4.21 0.00907 8.42 0.0056 12.6-7.58e-4 4.42-0.00508 8.83-3.63e-4 13.2 0.00277 7.41 0.00363 14.8-0.00114 22.2-0.0107 8.56-0.0109 17.1-0.00735 25.7 0.00365 7.36 0.00908 14.7 0.0104 22.1 0.00512 4.39-0.00312 8.79-0.00354 13.2 0.00307 4.13 0.00578 8.25 0.00177 12.4-0.00979 1.51-0.00264 3.03-0.00189 4.54 0.00253 2.07 0.00547 4.13-0.0014 6.2-0.0114 1.73-0.00113 1.73-0.00113 3.5-0.00229 4.15-0.34 6.97-1.34 10.2-3.99 7.12-8.5 10.9-20.8 15.1-31 1.63-3.98 3.27-7.95 4.92-11.9 0.331-0.8 0.662-1.6 1-2.42 8.81-21.3 18.2-42.3 27.5-63.4 3.86-8.78 7.7-17.6 11.5-26.4 16.6-38.9 16.6-38.9 21-41.3 4.11-1.23 7.94-1.15 12.2-1.1 0.921 0.0012 1.84 0.0024 2.79 0.00363 1.99 0.00314 3.99 0.0104 5.98 0.0214 3.16 0.0149 6.31 0.0133 9.47 0.00635 8.97-0.0188 17.9-0.0251 26.9 0.0218 5.49 0.0275 11 0.0213 16.5-0.00701 2.09-0.00427 4.19 0.00425 6.28 0.0257 2.92 0.0288 5.84 0.0146 8.77-0.00944 0.866 0.019 1.73 0.0379 2.62 0.0574 2.36-0.0448 4.24-0.135 6.47-0.912 1.97-2.22 2.79-4.23 4-7 6.3-5.49 15.5-7.03 22-1.22z" fill="#A60804"/>
<path transform="translate(757 290)" d="m0 0c1.47 1.28 2.93 2.57 4.38 3.88 0.775 0.657 1.55 1.31 2.35 1.99 8.59 7.37 14.8 15.3 20.7 25-3.58 3.91-7.14 6.45-11.9 8.8-0.974 0.492-0.974 0.492-1.97 0.995-1.36 0.685-2.73 1.37-4.1 2.04-2.09 1.04-4.17 2.1-6.25 3.16-1.33 0.665-2.66 1.33-3.99 1.99-0.62 0.318-1.24 0.635-1.88 0.962-2.46 1.2-4.36 2.07-7.13 1.93-2.14-1.07-3.32-2.24-4.87-4.05-0.567-0.643-1.13-1.29-1.72-1.95-0.595-0.683-1.19-1.37-1.8-2.07-9.08-10-20.7-17.9-34.6-19-20.5-0.507-37.5 3.04-52.7 17.5-12.4 13.2-16.6 28.9-16.3 46.5 0.577 13.1 7.44 25.7 16.3 35.2 9.89 8.87 22.5 15.7 36 16 1.68 0.058 1.68 0.058 3.39 0.117 21.5 0.392 36.8-5.79 52.6-20.4 1.49-2.47 0.69-4.02 0.0469-6.74-0.597 0.00444-1.19 0.00888-1.81 0.0135-6.2 0.0441-12.4 0.0744-18.6 0.0964-2.31 0.0101-4.63 0.0237-6.94 0.041-3.32 0.0242-6.64 0.0356-9.96 0.0444-1.04 0.0103-2.08 0.0206-3.15 0.0313-0.961 1.51e-4 -1.92 3.02e-4 -2.91 4.58e-4 -0.848 0.00444-1.7 0.00888-2.57 0.0135-2.06-0.241-2.06-0.241-4.06-2.24-0.212-2.47-0.304-4.83-0.301-7.31-0.00429-0.723-0.00857-1.45-0.013-2.19-0.00575-1.53-0.00624-3.06-0.00191-4.59 0.00316-2.34-0.0203-4.68-0.0457-7.02-0.00227-1.49-0.00298-2.97-0.00195-4.46-0.00921-0.7-0.0184-1.4-0.0279-2.12 0.0463-4.86 0.0463-4.86 1.66-7.01 2.13-1.61 3.2-1.69 5.85-1.68 0.836-0.00557 1.67-0.0111 2.53-0.0169 0.913 0.00921 1.83 0.0184 2.77 0.0279 0.964-0.00204 1.93-0.00409 2.92-0.0062 3.19-0.00301 6.39 0.0155 9.58 0.0345 2.21 0.00306 4.43 0.00493 6.64 0.00568 4.64 0.00461 9.28 0.019 13.9 0.0412 5.96 0.0283 11.9 0.0392 17.9 0.0437 4.57 0.00415 9.14 0.014 13.7 0.0259 2.2 0.00572 4.4 0.0105 6.6 0.0143 3.06 0.00684 6.13 0.0205 9.19 0.0363 0.917 0.00112 1.83 0.00224 2.78 0.00339 6.26 0.0431 6.26 0.0431 7.37 1.16 2.35 26.8-4.98 52-22 72.7-13.4 15.5-30.3 26.6-50 32.3-1.05 0.318-2.1 0.637-3.19 0.965-25.9 6.5-54.6 2.71-77.8-10.2-24.8-15-42.5-36.7-50.3-64.7-6.47-27.1-0.876-52.2 12.3-76.1 0.509-0.964 1.02-1.93 1.54-2.92 6.99-12.1 18.6-22.8 30.5-30.1 0.761-0.494 1.52-0.987 2.3-1.5 36.3-22.9 83-22.4 117 4.62z" fill="#00528A"/>
<path transform="translate(830 273)" d="m0 0c0.905-0.00365 1.81-0.0073 2.74-0.0111 3-0.00813 6 0.00553 9 0.0201 2.09 5.19e-4 4.18 1.81e-7 6.28-0.00151 4.4 8.98e-5 8.79 0.0105 13.2 0.0286 5.6 0.0225 11.2 0.0233 16.8 0.0165 4.33-0.00337 8.66 0.00334 13 0.0131 2.06 0.00382 4.12 0.00501 6.19 0.00341 22.2-0.00287 45.9 1.09 63 17.1 13.8 15 18.8 33.4 18.3 53.5-0.819 16.3-7.34 29.9-19.2 41.1-16.2 13.4-35 15.5-55.4 15.9-1.01 0.0187-2.02 0.0373-3.07 0.0565-3.74 0.0676-7.47 0.128-11.2 0.19-12.6 0.217-12.6 0.217-25.4 0.438-0.33 22.8-0.66 45.5-1 69-7.24 0.0206-14.5 0.0412-21.9 0.0625-3.43 0.0137-3.43 0.0137-6.93 0.0276-1.8 0.00292-3.6 0.00547-5.41 0.00757-1.42 0.00767-1.42 0.00767-2.86 0.0155-1.34 1.81e-4 -1.34 1.81e-4 -2.71 3.66e-4 -1.17 0.00333-1.17 0.00333-2.36 0.00673-1.79-0.12-1.79-0.12-2.79-1.12-0.104-2.48-0.143-4.94-0.14-7.43-0.00297-0.787-0.00594-1.57-9e-3 -2.38-0.00873-2.66-0.0102-5.31-0.0117-7.97-0.00463-1.9-0.00965-3.79-0.015-5.69-0.0132-5.17-0.0196-10.3-0.024-15.5-0.00293-3.22-0.00703-6.45-0.0115-9.67-0.0137-10.1-0.0233-20.2-0.0272-30.2-0.00448-11.7-0.022-23.3-0.051-35-0.0216-9-0.0317-18-0.033-27-0.00105-5.38-0.00701-10.8-0.0248-16.1-0.0164-5.06-0.0187-10.1-0.00986-15.2 7.74e-4 -1.86-0.00362-3.72-0.0135-5.58-0.0126-2.53-0.0069-5.06 0.00358-7.6-0.00806-0.742-0.0161-1.48-0.0244-2.25 0.0281-2.88 0.0681-4.94 1.67-7.39 3.18-1.93 6.95-1.45 10.6-1.42z" fill="#00528A"/>
<path transform="translate(1134 286)" d="m0 0c11.4 11.4 20.8 29.2 20.8 45.8-8.67-0.5-17.3-1.41-25.9-2.38-1.09-0.114-2.18-0.228-3.3-0.345-10.4-1.21-10.4-1.21-14.8-4.28-2.12-2.74-2.12-2.74-4-5.88-5.36-8.42-10.6-12.3-20.2-14.7-12.5-2-25.9-1-36.8 5.81-4.19 3.42-6.54 7.74-7.25 13.1-0.119 4.21 0.0806 7.98 2.31 11.7 1.31 0.708 2.65 1.37 4 2 0.74 0.428 1.48 0.856 2.24 1.3 12.7 7.01 27.2 9.66 41.2 12.9 22.6 5.25 45.8 10.7 59.2 31.2 6.55 10.8 13.5 23 10.8 36.1-4.66 18.7-13.9 34.4-30.5 44.6-16.2 9.46-33.6 11.4-51.9 11.4-0.822-8.76e-4 -1.64-0.00175-2.49-0.00266-23.9-0.0843-44.5-4.06-63.6-19.4-0.758-0.531-1.52-1.06-2.3-1.61-0.562-0.459-1.12-0.918-1.7-1.39v-2h-2c-9.24-10.3-15.7-25.2-17-39 0.619-4.62 0.619-4.62 2-6 9.06-0.0776 18.2 1.48 27.1 2.81 1.1 0.153 2.21 0.306 3.34 0.464 1.04 0.163 2.09 0.326 3.17 0.493 1.41 0.21 1.41 0.21 2.84 0.425 3.09 0.985 4.46 2.34 6.53 4.81 1.12 2.4 1.12 2.4 2 4.94 2.17 6.26 5.51 10.1 11.1 13.7 1.29 0.855 1.29 0.855 2.6 1.73 8.7 4.29 17.3 5.13 26.8 5.02 1.05 0.0116 2.1 0.0232 3.18 0.0352 10.4-0.0386 22.1-1.9 30.1-9.02 4.3-4.84 4.98-9.18 4.63-15.6-0.921-5.77-3.69-10-8.43-13.6-12.7-7.77-27.8-10.6-42-14.2-48.4-12.5-48.4-12.5-61.4-32.9-7.15-13.1-7.69-28.6-3.79-43 6.1-16.6 17.8-27.1 33.5-34.8 30.5-13.8 73.1-12.1 99.9 9.86z" fill="#00528A"/>
<path transform="translate(421,216)" d="m0 0c3.76 1.76 7.31 3.83 10.9 5.94 1 0.58 2 1.16 3.04 1.76 2.05 1.19 4.1 2.38 6.15 3.58 2.69 1.57 5.39 3.13 8.1 4.67 1.59 0.911 3.19 1.82 4.78 2.73 0.682 0.39 1.36 0.78 2.07 1.18 1.45 0.837 2.87 1.72 4.27 2.63 2.35 1.3 4.26 2 6.8 2.76 5.14 1.87 9.04 3.95 11.9 8.74 2.75 11.1 1.84 23 1.5 34.3-0.111 4.3-0.136 8.6-0.166 12.9-0.0366 4.83-0.0815 9.66-0.193 14.5-0.0159 0.732-0.0318 1.46-0.0482 2.22-0.0448 1.97-0.0957 3.95-0.147 5.92 0.0419 2.64 0.248 4.69 1.05 7.19-6.98 4.82-14.2 9.11-21.6 13.3-1.16 0.665-2.32 1.33-3.47 2-6.93 3.98-13.9 7.92-20.9 11.8-6.15 3.44-12.2 6.97-18.1 10.9-6.42-0.112-10.8-2.86-16.1-6.12-1.7-1.02-3.4-2.03-5.11-3.05-0.828-0.492-1.66-0.984-2.51-1.49-2.99-1.72-6.02-3.23-9.13-4.71-10.1-4.9-19.6-10.9-29.2-16.6-1.39-0.77-1.39-0.77-2.8-1.56-0.726-0.477-1.45-0.953-2.2-1.44v-2h-2c0.0116-1.28 0.0232-2.55 0.0352-3.87 0.00938-1.67 0.0185-3.34 0.0273-5.01 0.00838-0.842 0.0168-1.68 0.0254-2.55 0.00322-0.806 0.00645-1.61 0.00977-2.44 0.00524-0.744 0.0105-1.49 0.0159-2.25 0.00434-1.97 0.00434-1.97-1.11-3.88-0.0979-2.28-0.131-4.56-0.133-6.84-9.57e-4 -0.676-0.00191-1.35-0.0029-2.05-6.81e-4 -1.43 0.00117-2.86 0.00534-4.29 0.00533-2.18 6.04e-5 -4.37-0.00635-6.55 6.61e-4 -1.39 0.00194-2.78 0.00391-4.17 0.00113-1.27 0.00226-2.53 0.00342-3.83 0.106-2.68 0.455-4.71 1.13-7.27 0.0237-1.53-0.00598-3.06-0.0781-4.59-0.0258-0.867-0.0516-1.73-0.0781-2.63-0.0624-1.81-0.14-3.62-0.234-5.43-0.0998-4.2-0.141-6.58 2.28-10.1 4.22-3.05 8.58-5.69 13.1-8.25 0.85-0.485 1.7-0.969 2.58-1.47 2.68-1.52 5.36-3.03 8.05-4.53 9.67-5.44 19.3-11 28.8-16.6 0.959-0.562 1.92-1.12 2.91-1.7 0.849-0.499 1.7-0.997 2.57-1.51 4.72-2.72 8-1.84 13.1-0.192z" fill="#FDFDFE"/>
<path transform="translate(522,309)" d="m0 0c-3.99 17.9-10 34.8-22 49-1.08 1.29-1.08 1.29-2.18 2.6-13.3 15.3-29.5 26-48.7 32.6-0.719 0.25-1.44 0.501-2.18 0.759-10.8 3.55-21.5 4.41-32.8 4.37-2.06-0.00316-4.11 0.0204-6.17 0.0457-22.4 0.108-43.4-7.62-61-21.4 0.495-0.99 0.495-0.99 1-2 0.118-1.51 0.177-3.03 0.205-4.54 0.0299-1.41 0.0299-1.41 0.0604-2.85 0.0167-1.02 0.0334-2.04 0.0506-3.08 0.0208-1.04 0.0416-2.08 0.063-3.15 0.0655-3.33 0.124-6.66 0.183-10 0.0432-2.26 0.0868-4.51 0.131-6.77 0.107-5.54 0.209-11.1 0.307-16.6 0.33 0.66 0.66 1.32 1 2 1.66 0.694 3.32 1.36 5 2 1.85 1.01 3.69 2.05 5.51 3.12 1.06 0.619 2.12 1.24 3.21 1.88 1.12 0.659 2.25 1.32 3.4 2 8.8 5.13 17.7 10.1 26.7 14.8 4.09 2.11 8.03 4.33 11.9 6.8 3.85 2.32 6.62 3.77 11.2 3.44 2.23-1.13 2.23-1.13 4.55-2.64 5.28-3.27 10.7-6.32 16.1-9.36 8.47-4.77 16.9-9.6 25.3-14.5 1.48-0.862 1.48-0.862 2.99-1.74 4.21-2.46 8.38-4.94 12.5-7.58 2.71-1.71 5.05-2.83 8.22-3.49 8.69-2.35 16.4-7.78 23.9-12.6 7.18-4.54 7.18-4.54 11.4-3.12z" fill="#00528A"/>
<path transform="translate(347,253)" d="m0 0c2 2 2 2 2.24 4.03-0.00411 0.815-0.00822 1.63-0.0125 2.47-0.00193 0.887-0.00387 1.77-0.00586 2.69-0.0184 1.39-0.0184 1.39-0.0371 2.81-6.45e-4 0.928-0.00129 1.86-0.00195 2.81-0.0452 6.91-0.0452 6.91-1.19 9.19-0.0979 2.3-0.131 4.6-0.133 6.91-9.57e-4 0.681-0.00191 1.36-0.0029 2.06-6.81e-4 1.44 0.00117 2.88 0.00534 4.32 0.00535 2.21 5.12e-5 4.41-0.00635 6.62 6.61e-4 1.4 0.00194 2.79 0.00391 4.19 0.00169 1.91 0.00169 1.91 0.00342 3.87-0.0816 2.96-0.0816 2.96 1.13 5.04 0.0917 2.09 0.118 4.19 0.114 6.29 1.46e-4 0.644 2.92e-4 1.29 4.43e-4 1.95-6.97e-4 2.13-0.00848 4.26-0.0163 6.4-0.00186 1.48-0.00329 2.95-0.00429 4.43-0.00382 3.89-0.0136 7.78-0.0247 11.7-0.0102 3.97-0.0148 7.94-0.0198 11.9-0.0107 7.79-0.0278 15.6-0.0488 23.4-13.1-2.85-22.9-17.1-30.1-27.3-13-20.4-19.6-44.5-17.9-68.7 0.713-3.02 1.59-5.23 3-8 1.32 0.33 2.64 0.66 4 1v-2c0.663-0.218 1.33-0.435 2.01-0.66 7.22-2.48 13.7-5.69 20.3-9.47 11.4-6.43 11.4-6.43 16.7-7.88z" fill="#A60804"/>
<path transform="translate(481,205)" d="m0 0c2.49 1.2 4.68 2.45 7 4v2h2c18.7 17.7 32.4 45.9 33.5 71.7 0.0792 2.72 0.117 5.45 0.145 8.17 0.0231 1.31 0.0462 2.63 0.0701 3.98-0.0759 9.2-0.0759 9.2-2.8 13.3-3.21 2-6.38 3.41-9.9 4.8-2.29 1.26-4.56 2.55-6.81 3.88-16.1 9.32-16.1 9.32-22.2 10.1-2-1-2-1-3-4-0.0946-2.12-0.128-4.24-0.129-6.36-0.00173-0.644-0.00345-1.29-0.00523-1.95-0.00436-2.15-0.0014-4.29 0.00181-6.44-0.00106-1.52-0.00244-3.03-0.00414-4.55-0.0028-4.06 0.00158-8.12 0.00817-12.2 0.00376-2.51 0.00583-5.01 0.00747-7.52 0.0154-20 0.0943-40 0.559-59.9 0.0196-0.891 0.0391-1.78 0.0593-2.7 0.0558-2.44 0.119-4.89 0.187-7.33 0.0167-0.699 0.0334-1.4 0.0507-2.12 0.149-4.68 0.149-4.68 1.27-6.92z" fill="#A50804"/>
<path transform="translate(870 308)" d="m0 0c0.848-0.00946 1.7-0.0189 2.57-0.0287 0.916 0.00607 1.83 0.0121 2.77 0.0184 0.949-0.00287 1.9-0.00574 2.87-0.0087 2.01-0.00204 4.02 0.0035 6.03 0.016 3.05 0.0159 6.1 2.24e-4 9.15-0.019 1.96 0.00198 3.92 0.00583 5.88 0.0117 0.901-0.00607 1.8-0.0121 2.73-0.0184 8.59 0.0934 17.1 1.75 23.8 7.42 6.43 7.35 8.21 12.1 8.31 21.7 0.0435 1.31 0.0435 1.31 0.0879 2.65 0.0704 7.25-1.68 12.2-6.12 17.9-10.7 9.61-24.8 8.21-38.3 8.07-3.13-0.0315-6.26-0.041-9.39-0.0469-1.99-0.00916-3.98-0.0195-5.97-0.0312-0.936-0.00425-1.87-0.0085-2.84-0.0129-0.862-0.00961-1.72-0.0192-2.61-0.0291-0.759-0.00683-1.52-0.0137-2.3-0.0207-1.87-0.14-1.87-0.14-3.87-1.14-0.0759-7.49-0.129-15-0.165-22.5-0.0151-2.55-0.0356-5.1-0.0615-7.65-0.0363-3.66-0.0534-7.32-0.0667-11-0.0155-1.14-0.031-2.29-0.0469-3.47-2.27e-4 -1.06-4.53e-4 -2.12-6.87e-4 -3.21-0.00666-0.935-0.0133-1.87-0.0202-2.83 0.361-2.37 0.361-2.37 1.62-4.17 2.15-1.48 3.36-1.58 5.96-1.59z" fill="#FEFEFE"/>
<path transform="translate(790,495)" d="m0 0 2 1c-0.327 0.828-0.655 1.66-0.992 2.51-1.12 3.87-1.23 7.38-1.13 11.4 0.00902 0.688 0.018 1.38 0.0273 2.09 0.0233 1.68 0.0592 3.36 0.0977 5.04 7.91-0.952 7.91-0.952 14.9-4.44 5.36-3.73 12.2-5.82 18.8-5.39 2.95 1.05 3.62 2.19 5.12 4.89 0.419 0.733 0.838 1.47 1.27 2.22 0.454 0.849 0.454 0.849 0.918 1.71 4.09-0.593 6.99-1.98 10.6-4 6.09-3.14 11.6-4.25 18.4-4 3 1 3 1 4.69 4.06 0.433 0.969 0.866 1.94 1.31 2.94 2.97-0.33 5.94-0.66 9-1v4c-1.93 1.39-1.93 1.39-4.44 2.69-3.42 2.06-3.42 2.06-5.38 5.38-0.254 2.35-0.285 4.57-0.18 6.93 0.227 7.12-0.177 11.8-4.25 17.9-3.06 1.97-5.1 2.18-8.75 2.12-4.56-2.02-8.14-4.32-10.4-8.81 1.01-7.38 6.28-12.3 11.9-16.7 2.56-2.45 3.42-5.16 4.55-8.48-8.31-0.292-15.2-0.383-23 3-3.88 0.533-5.36 0.404-8.69-1.69-2.31-2.31-2.31-2.31-3.94-5.06-0.681-1.11-0.681-1.11-1.38-2.25h-3c-0.289 0.784-0.577 1.57-0.875 2.38-1.12 2.62-1.12 2.62-3.12 4.62-3.26-0.0234-3.26-0.0234-7.12-0.375-1.28-0.111-2.56-0.222-3.88-0.336-0.987-0.0954-1.97-0.191-2.99-0.289-0.33 1.32-0.66 2.64-1 4-3.12 0.812-3.12 0.812-7 1-3.19-2.38-3.19-2.38-6-5-1.93-1.15-1.93-1.15-4-1-3.21 1.35-5.53 2.53-8 5-2.37 0.301-4.74 0.495-7.12 0.625-1.28 0.0748-2.56 0.15-3.88 0.227-0.987 0.049-1.97 0.098-2.99 0.148-0.0271 3.04-0.0469 6.08-0.0625 9.12-0.00838 0.856-0.0168 1.71-0.0254 2.59-0.0175 4.55 0.156 8.81 1.09 13.3-0.99 0.66-1.98 1.32-3 2-3.88-1.75-3.88-1.75-5-4-0.348-4.42-0.469-8.85-0.613-13.3-0.0737-2.19-0.165-4.38-0.257-6.57-0.563-15.3-0.563-15.3 1.87-22.2 0.66-0.66 1.32-1.32 2-2h3c0.506 1.75 1 3.5 1.5 5.25 0.278 0.975 0.557 1.95 0.844 2.95 0.656 2.8 0.656 2.8 0.656 6.8 1.32 0.33 2.64 0.66 4 1-0.275-3.82-0.275-3.82-2-7-0.0406-1.67-0.0427-3.33 0-5 3.89 0.236 5.74 1.5 8.5 4.06 2.21 1.98 3.29 2.88 6.19 3.69 3.67-1.19 4.55-3.41 6.31-6.75 0.731-2.31 1.4-4.65 2-7 1.76-4.76 1.76-4.76 3-6z" fill="#A60804"/>
<path transform="translate(416,237)" d="m0 0c1.06 1.63 2.06 3.3 3 5-1.02 0.528-1.02 0.528-2.05 1.07-11.8 5.88-11.8 5.88-20.9 14.9 4.65 4.2 10 7.66 16.4 8.2 5.66-0.344 8.79-2.07 12.6-6.2v-3c-4.65 0.485-4.65 0.485-9 2-2.33 0.0402-4.67 0.0432-7 0-0.495-1.49-0.495-1.49-1-3 3.27-4.01 7.24-5.69 11.9-7.75 2.47-1.12 2.47-1.12 3.14-4.25 6.41 0.451 11.2 2.76 16.8 5.75 0.858 0.431 1.72 0.861 2.6 1.3 6.21 3.26 6.21 3.26 8.16 6.77 0.141 0.717 0.281 1.43 0.426 2.17-7.71 5.3-15.5 10.4-23.6 15-0.662 0.373-1.32 0.746-2.01 1.13-6.49 3.59-11 5.78-18.4 3.87-5.62-2.36-10.8-5.61-15.9-8.88-0.692-0.436-1.38-0.872-2.1-1.32-5.04-3.19-10-6.44-15-9.8 1.12-4.29 2.91-5.97 6.7-8.18 0.636-0.352 1.27-0.704 1.93-1.07 0.657-0.378 1.31-0.755 1.99-1.14 1.4-0.8 2.8-1.59 4.2-2.38 2.21-1.24 4.4-2.5 6.59-3.77 1.43-0.819 2.85-1.64 4.28-2.45 0.67-0.386 1.34-0.772 2.03-1.17 4.93-2.78 8.72-4.83 14.3-2.83z" fill="#00528A"/>
<path transform="translate(458,271)" d="m0 0c0.66 0.33 1.32 0.66 2 1 0.636 3.18 0.821 5.84 0 9-2.93 2.74-6.43 4.24-10 6-2.17 1.28-4.34 2.57-6.5 3.88-5.25 3.12-5.25 3.12-7.5 3.12-0.33 1.98-0.66 3.96-1 6 7.36-2.29 13.4-5.26 19.7-9.71 0.763-0.427 1.53-0.853 2.31-1.29 0.99 0.33 1.98 0.66 3 1 0.223 3.02 0.429 6.04 0.625 9.06 0.0645 0.848 0.129 1.7 0.195 2.57 0.711 11.5 0.711 11.5-3.38 16.1-5.02 4.63-10.7 8.12-16.6 11.5-0.876 0.524-1.75 1.05-2.65 1.59-11.1 6.57-11.1 6.57-18.2 6.1-0.66-0.33-1.32-0.66-2-1-0.0625-2.62-0.0625-2.62 1-6 5.18-4.88 12.4-7.9 18.7-11.1 7.18-3.51 7.18-3.51 11.3-9.89-6.88 0.526-12.2 4.18-18.1 7.49-0.814 0.447-1.63 0.893-2.47 1.35-0.732 0.413-1.46 0.825-2.22 1.25-2.57 1.05-4.46 1.14-7.22 0.902-2.4-2.4-1.19-8.53-1.19-11.8-0.0122-1-0.0245-2.01-0.0371-3.04-0.00193-0.972-0.00387-1.94-0.00586-2.95-0.00411-0.889-0.00822-1.78-0.0125-2.69 0.283-2.99 0.767-4.94 2.24-7.57 2.53-1.85 2.53-1.85 5.71-3.56 0.57-0.312 1.14-0.623 1.73-0.944 1.82-0.992 3.66-1.96 5.49-2.93 1.2-0.648 2.4-1.3 3.6-1.95 2.35-1.27 4.71-2.54 7.07-3.79 2.23-1.2 4.45-2.42 6.66-3.67 1.48-0.837 1.48-0.837 2.99-1.69 0.871-0.5 1.74-1 2.64-1.52 0.695-0.313 1.39-0.626 2.11-0.949z" fill="#00528A"/>
<path transform="translate(366,273)" d="m0 0c7.18 2.15 13.4 5.13 20 8.75 0.933 0.5 1.87 1 2.83 1.52 15.6 8.52 15.6 8.52 18.2 13.7 0.0853 2.03 0.107 4.07 0.0977 6.1-0.00322 1.21-0.00645 2.42-0.00977 3.67-0.0126 1.91-0.0126 1.91-0.0254 3.85-0.00451 1.28-0.00902 2.56-0.0137 3.88-0.0118 3.17-0.0283 6.33-0.0488 9.5-3.7-0.579-6.42-1.59-9.65-3.47-0.859-0.489-1.72-0.977-2.6-1.48-1.78-1.03-3.57-2.07-5.35-3.1-4.46-2.53-8.15-4.6-13.4-4.95 0.165 1.03 0.33 2.06 0.5 3.12 0.433 3.36 0.582 6.5 0.5 9.88-3 1-3 1-4.94 0.172-5.27-3.64-7.01-6.68-8.51-12.8-0.972-5.88-0.998-11.7-0.945-17.7 0.0163-2.19-4.03e-5 -4.37-0.019-6.56 0.00198-1.4 0.00582-2.8 0.0117-4.2 0.00338-1.25 0.00677-2.51 0.0103-3.8 0.388-3.1 0.388-3.1 1.91-5.04 0.487-0.353 0.974-0.705 1.48-1.07z" fill="#00528A"/>
<path transform="translate(643 472)" d="m0 0c2.93 2.87 4.49 4.8 5.05 8.87 0.0249 4.8-0.247 7.87-3.3 11.8-1.32-0.33-2.64-0.66-4-1 0.0116-0.927 0.0232-1.85 0.0352-2.81 0.00902-1.2 0.018-2.4 0.0273-3.63 0.0116-1.19 0.0232-2.39 0.0352-3.62 0.241-2.83 0.241-2.83-1.1-3.94-9.59-1.64-17 2.07-25 7-5.36 4.02-9.45 7.79-10.6 14.6 0.289 3.49 0.289 3.49 2.9 5.39 4.85 2.98 10.5 3.91 16 5.11 1.15 0.259 2.3 0.517 3.48 0.784 9.38 2.05 18.7 3.37 28.3 4.09-2.17 2.5-3.73 3.44-7 4-0.147 0.857-0.294 1.71-0.445 2.6-1.41 7.17-2.55 12.9-8.55 17.4-7.01 4.5-14.5 8-23 7-4.19-1.54-7.14-3.44-9.31-7.38 0.499-4.19 2.34-6.78 5.31-9.62 5.31-3.69 10.5-7.07 17-8-0.33-1.98-0.66-3.96-1-6-1.61 0.0928-1.61 0.0928-3.25 0.188-9.63-0.0171-18.2-2.76-25.1-9.5-2.24-3.7-2.32-5.39-1.62-9.69 3.96-10.2 11.7-18.8 21.8-23.2 16.1-5.69 16.1-5.69 23.5-0.465z" fill="#A60804"/>
<path transform="translate(725,502)" d="m0 0c2.38 0.438 2.38 0.438 5 2 1.93 4.77 2.26 9.9 2 15 1.65 0.33 3.3 0.66 5 1-0.312-1.42-0.624-2.83-0.938-4.25-0.174-0.789-0.348-1.58-0.527-2.39-0.483-2.13-0.997-4.24-1.54-6.36 2.9 0.996 4.98 1.98 7.38 3.94 3.1 2.44 5.97 3.63 9.62 5.06v2c-7.21 5.21-13.3 5.61-22 5-0.175 13-0.175 13 1 26-1.81 0.625-1.81 0.625-4 1-0.99-0.66-1.98-1.32-3-2-0.417-2.89-0.417-2.89-0.477-6.55-0.0156-0.649-0.0312-1.3-0.0472-1.97-0.0476-2.08-0.0753-4.16-0.101-6.24-0.0367-2.06-0.0775-4.13-0.123-6.19-0.0395-1.88-0.0673-3.77-0.0946-5.65-0.149-3.21-0.607-6.24-1.16-9.4 0.458-3.85 1.19-7.19 4-10z" fill="#A60804"/>
<path transform="translate(675,507)" d="m0 0c4.79 4.66 4.79 4.66 6.44 7.31 1.49 1.98 1.49 1.98 4.3 2 3.86-0.375 5.76-1.51 8.95-3.69 0.932-0.626 1.86-1.25 2.82-1.9 0.821-0.57 1.64-1.14 2.49-1.73 3.52-2.35 4.86-2.58 9-2 3.94 3.06 5.24 5.16 6 10-1.41 1.04-2.82 2.05-4.25 3.06-0.789 0.568-1.58 1.14-2.39 1.72-2.36 1.21-2.36 1.21-4.41 1.09-1.95-0.871-1.95-0.871-3.9-2.55-0.678-0.436-1.36-0.871-2.05-1.32-2.46 0.552-2.46 0.552-4.88 1.88-4.19 1.85-6.67 2.85-11.1 1.12-4.05-2.97-7.5-6.4-11-10 1.75-3.88 1.75-3.88 4-5z" fill="#A60804"/>
<path transform="translate(663,477)" d="m0 0c3 1 3 1 4.25 2.94 0.247 0.681 0.495 1.36 0.75 2.06-0.33 0.66-0.66 1.32-1 2-0.877 6.45-1.11 13-1.25 19.5-0.0258 1.14-0.0516 2.29-0.0781 3.47 0.365 3.37 1.25 4.46 3.33 7.03-0.327 6.33-0.327 6.33-3 9-3.44-0.353-5.07-1.05-8-3-0.356-1.93-0.356-1.93-0.328-4.3 0.00435-0.87 0.0087-1.74 0.0132-2.64 0.0214-0.93 0.0429-1.86 0.0649-2.82 0.0124-0.946 0.0248-1.89 0.0376-2.87 0.373-22.2 0.373-22.2 3.21-29.4l2-1z" fill="#A60804"/>
<path transform="translate(756,503)" d="m0 0h3c0.506 1.75 1 3.5 1.5 5.25 0.278 0.975 0.557 1.95 0.844 2.95 0.656 2.8 0.656 2.8 0.656 6.8 0.959 0.155 0.959 0.155 1.94 0.312 1.02 0.34 1.02 0.34 2.06 0.688 0.33 0.99 0.66 1.98 1 3-2.31 0.66-4.62 1.32-7 2-0.0271 3.04-0.0469 6.08-0.0625 9.12-0.00838 0.856-0.0168 1.71-0.0254 2.59-0.0175 4.55 0.156 8.81 1.09 13.3-0.99 0.66-1.98 1.32-3 2-3.88-1.75-3.88-1.75-5-4-0.348-4.42-0.469-8.85-0.613-13.3-0.0737-2.19-0.165-4.38-0.257-6.57-0.563-15.3-0.563-15.3 1.87-22.2 0.66-0.66 1.32-1.32 2-2z" fill="#A70A07"/>
<path transform="translate(634 522)" d="m0 0c1.24 0.155 1.24 0.155 2.5 0.312 2.17 3.25 2.54 4.23 2 8-4.57 5.9-10.7 9.69-18 11-2.4 0.19-4.59 0.154-7 0-0.33-0.99-0.66-1.98-1-3 3.56-5.67 8.78-8.72 14.4-12.3 5.94-3.9 5.94-3.9 7.14-4.05z" fill="#FDFDFE"/>
<path transform="translate(457,282)" d="m0 0c2.31 0.812 2.31 0.812 4 2-1.12 4.44-3.19 6.19-7.05 8.54-0.663 0.379-1.33 0.758-2.01 1.15-0.672 0.395-1.34 0.79-2.04 1.2-4.89 2.78-9.27 4.42-14.9 5.12 0.0156-2.71 0.0156-2.71 1-6 2.34-2.01 5-3.31 7.75-4.69 1.43-0.754 2.86-1.51 4.3-2.26 0.682-0.347 1.36-0.695 2.07-1.05 1.63-0.862 3.2-1.83 4.76-2.82 0.703-0.389 1.41-0.779 2.13-1.18z" fill="#FCFDFF"/>
<path transform="translate(377,290)" d="m0 0c5.09 1.22 8.8 2.72 13 6v2h2c3 4.38 3 4.38 3 7-6.96-0.253-11.7-2.39-17-7v-2c-0.99-0.33-1.98-0.66-3-1 0.875-3.88 0.875-3.88 2-5z" fill="#FCFDFE"/>
<path transform="translate(856,530)" d="m0 0c1.32 0.33 2.64 0.66 4 1 0.0544 1.58 0.093 3.17 0.125 4.75 0.0232 0.882 0.0464 1.76 0.0703 2.67-0.207 2.73-0.74 4.28-2.2 6.58-2.99 2-4.23 2-8 2v-2h-2c0.166-6.46 4-10.3 8-15z" fill="#FDFDFE"/>
<path transform="translate(422,264)" d="m0 0c-5.32 3.41-9.06 3.1-15 2v-1c2.12-0.362 4.25-0.714 6.38-1.06 1.78-0.296 1.78-0.296 3.59-0.598 3.04-0.34 3.04-0.34 5.04 0.66z" fill="#FEFEFE"/>
</svg>
